# xmcd CD database file
#
# Track frame offsets:
#	150
#	17490
#	34970
#	51920
#	69000
#	87500
#	107167
#	130625
#	147425
#	167582
#
# Disc length: 2627 seconds
#
# Revision: 3
# Processed by: cddbd v1.5.1PL2 Copyright (c) Steve Scherf et al.
# Submitted via: CDex 1.51
#
DISCID=800a410a
DTITLE=New Order - Brotherhood
DYEAR=1986
DGENRE=Pop
TTITLE0=Paradise
TTITLE1=Weirdo
TTITLE2=As It Is When It Was
TTITLE3=Broken Promise
TTITLE4=Way Of Life
TTITLE5=Bizarre Love Triangle
TTITLE6=All Day Long
TTITLE7=Angel Dust
TTITLE8=Every Little Counts
TTITLE9=State Of The Nation
EXTD=YEAR: 1986
EXTT0=
EXTT1=
EXTT2=
EXTT3=
EXTT4=
EXTT5=
EXTT6=
EXTT7=
EXTT8=
EXTT9=
PLAYORDER=
